<svg version="1.1" id="emoticon-front-view" viewBox="0.0 0.0 250.0 250.0" xmlns:xlink="http://www.w3.org/1999/xlink" xmlns="http://www.w3.org/2000/svg" xmlns:svg="http://www.w3.org/2000/svg">
  <defs id="defs4">
    <linearGradient id="linearGradient5745">
      <stop id="stop5747" offset="0" style="stop-color:#f4e415;stop-opacity:1"></stop>
      <stop id="stop5749" offset="1" style="stop-color:#e95e0e;stop-opacity:1"></stop>
    </linearGradient>
    <linearGradient id="linearGradient2823">
      <stop id="stop2825" offset="0" style="stop-color:#000000;stop-opacity:1"></stop>
      <stop id="stop2827" offset="1" style="stop-color:#662e91;stop-opacity:1"></stop>
    </linearGradient>
    <clipPath id="clipPath2967">
      <use id="use2969" x="0" y="0" width="1" height="1" xlink:href="#path3622" transform="translate(-57.14,-22.86)"></use>
    </clipPath>
    <clipPath id="clipPath4022">
    <use id="use5959" x="0" y="0" width="250" height="250" xlink:href="#path3622" transform="matrix(-1,0,0,1,915.87,-3.77)"></use>
    </clipPath>
    <radialGradient spreadMethod="pad" gradientTransform="matrix(98.09029,121.52782,-104.45905,83.940949,1881.611,1722.6769)" gradientUnits="userSpaceOnUse" xlink:href="#linearGradient5745" id="radialGradient5694" fy="2.7052789" fx="-15.37231" r="1" cy="2.7052789" cx="-15.37231"></radialGradient>
    <linearGradient gradientTransform="translate(37.463072,-25.351165)" gradientUnits="userSpaceOnUse" xlink:href="#linearGradient2823" id="irisGradient" y2="606.46576" x2="138.57143" y1="488.07648" x1="107.14286"></linearGradient>
  </defs>
  <g id="head">
    <path style="fill:url(#radialGradient5694);fill-opacity:1;stroke:#000000;stroke-width:1;stroke-opacity:1" id="path164" d="M 37.09,139.48 C 36.86,191.41 78.01,227.96 128.48,227.96 L 128.48,227.96 C 178.93,227.96 221.33,185.84 219.84,133.93 L 219.84,133.93 C 217.93,66.69 154.28,28.46 127.68,22.78 L 127.68,22.78 C 99.08,30.59 37.44,65.52 37.09,139.48"></path>
    <g id="head-glare">
      <path style="fill:#f9d737;fill-opacity:1;stroke:none" id="path184" d="M 65.39,67.61 C 40.82,98 40.57,141.97 40.57,150.07 L 40.57,150.07 C 40.57,157.77 50.53,178.05 48.82,170.56 L 48.82,170.56 C 44.62,152.13 45.72,141.3 45.72,135.32 L 45.72,135.32 C 45.72,131.23 46.35,127.06 49.05,110.76 L 49.05,110.76 C 51.75,94.46 58.85,84.99 72.84,65.76 L 72.84,65.76 C 86.83,46.52 117.39,29.49 126.27,28.73 L 126.27,28.73 C 135.14,28 157.33,40.7 157.33,40.7 L 157.33,40.7 C 157.33,40.7 169.76,45.83 154.01,36.86 L 154.01,36.86 C 138.28,27.9 126.04,24.59 126.04,24.59 L 126.04,24.59 C 126.04,24.59 93.8,32.47 65.39,67.61"></path>
      <path style="fill:#fff7dd;fill-opacity:1;fill-rule:nonzero;stroke:none" id="path196" d="M 126.5,24.82 C 126.5,24.82 137.37,25.91 152.76,35.49 168,44.97 157.71,38.62 157.71,38.62 157.71,38.62 135.62,25.91 126.73,26.35 111.88,27.08 78,52.43 66.41,67.91 52.11,87.03 46.1,106.15 43.4,122.45 40.7,138.76 40.57,155.69 40.57,147.98 40.57,139.88 41.5,95.35 66.72,65.53 93.44,33.93 126.5,24.82 126.5,24.82"></path>
    </g>
  </g>
  <g style="stroke-width:4.36;stroke-miterlimit:4;stroke-dasharray:none" id="left-eye" transform="matrix(0.16,0,0,0.16,61.42,19.46)">
    <path style="fill:#ffffff;stroke:#000000;stroke-width:6.14;stroke-miterlimit:4;stroke-opacity:1;stroke-dasharray:none" id="path3622" d="M 277.19,492.59 C 309.27,524.8 304.9,575.72 286.69,593.5 230.42,585.89 160.26,593.09 114.93,592.31 74.05,565.46 73.3,507.96 117.27,472.23 168.72,444.33 240.33,459.92 277.19,492.59 Z"></path>
    <g style="stroke-width:4.36;stroke-miterlimit:4;stroke-dasharray:none" id="lens" clip-path="url(#clipPath2967)" transform="translate(57.14,22.86)">
      <g id="g4403">
        <path style="fill:url(#irisGradient);fill-opacity:1;stroke:#000000;stroke-width:6.14;stroke-miterlimit:4;stroke-opacity:1;stroke-dasharray:none" id="iris" d="M 206.51,516.72 C 206.51,531.68 200.65,546.55 190.61,557.13 180.56,567.71 166.43,573.86 152.22,573.86 138.01,573.86 123.88,567.71 113.83,557.13 103.78,546.55 97.93,531.68 97.93,516.72 97.93,501.76 103.78,486.89 113.83,476.32 123.88,465.74 138.01,459.58 152.22,459.58 166.43,459.58 180.56,465.74 190.61,476.32 200.65,486.89 206.51,501.76 206.51,516.72 Z"></path>
        <path style="fill:#000000;fill-opacity:1;stroke:#000000;stroke-width:6.14;stroke-miterlimit:4;stroke-opacity:1;stroke-dasharray:none" id="pupil" d="M 169.93,519.81 C 169.93,524.48 168.01,529.13 164.71,532.44 161.4,535.75 156.75,537.67 152.08,537.67 147.4,537.67 142.75,535.75 139.45,532.44 136.14,529.13 134.22,524.48 134.22,519.81 134.22,515.13 136.14,510.48 139.45,507.17 142.75,503.87 147.4,501.94 152.08,501.94 156.75,501.94 161.4,503.87 164.71,507.17 168.01,510.48 169.93,515.13 169.93,519.81 Z"></path>
        <path style="fill:#ffffff;fill-opacity:1;stroke:none" id="glare" d="M 146.75,505.76 C 146.75,510.82 142.6,514.91 137.48,514.91 132.37,514.91 128.22,510.82 128.22,505.76 128.22,500.71 132.37,496.61 137.48,496.61 142.6,496.61 146.75,500.71 146.75,505.76 Z"></path>
      </g>
    </g>
  </g>
  <g style="stroke-width:4.36;stroke-miterlimit:4;stroke-dasharray:none" id="right-eye" transform="matrix(0.16,0,0,0.16,44.85,20.07)">
    <use id="use3959" x="0" y="0" width="250" height="250" xlink:href="#path3622" transform="matrix(-1,0,0,1,915.87,-3.77)"></use>
    <g id="g4015" clip-path="url(#clipPath4022)">
      <use style="stroke-width:4.36;stroke-miterlimit:4;stroke-dasharray:none" xlink:href="#g4403" height="1" width="1" y="0" x="0" id="right-lens" transform="translate(553.26,19.48)"></use>
    </g>
  </g>
  <path style="fill:#292929;fill-opacity:1;fill-rule:nonzero;stroke:#000000;stroke-width:1;stroke-miterlimit:4;stroke-opacity:1;stroke-dasharray:none" id="left-eye-brow" d="M 114.94,84 113.17,85.54 C 102.58,78.01 96.14,75.89 87.18,76.51 78.22,77.14 70.21,82.08 66.05,90.6 L 64.29,90.33 C 68.69,86.7 72.08,78.44 87.01,75.04 97.74,74.31 105,77.93 114.94,84 Z"></path>
  <g style="fill:#000000;fill-opacity:1;stroke:#000000;stroke-width:0.22;stroke-opacity:1" id="nose" transform="matrix(5.34,0,0,-6.08,110.43,133.18)">
    <path style="fill:#000000;fill-opacity:1;stroke:#000000;stroke-width:0.04;stroke-linecap:butt;stroke-linejoin:miter;stroke-miterlimit:4;stroke-opacity:1;stroke-dasharray:none" id="nose-path" d="M 0.2,0.05 0.64,-0.19 C 0.87,-2.36 2.21,-3.43 3.56,-3.43 4.92,-3.43 6.25,-2.34 6.47,-0.15 L 6.85,0.08 C 6.65,-2.4 5.05,-3.54 3.56,-3.54 2.08,-3.54 0.49,-2.45 0.2,0.05 Z"></path>
  </g>
  <path style="fill:#000000;fill-opacity:1;stroke:#000000;stroke-width:0.62;stroke-linecap:butt;stroke-linejoin:miter;stroke-miterlimit:4;stroke-opacity:1;stroke-dasharray:none" id="mouth-path" d="M 83.75,170.28 C 83.75,170.28 96.68,176.48 129.69,176.17 163.61,175.87 175.96,169.07 175.96,169.07 L 177.43,169.5 C 177.43,169.5 165.6,195.66 130.22,195.82 94.34,195.79 82.43,170.52 82.43,170.52 L 83.75,170.28 Z"></path>
  <use id="right-eye-brow" x="0" y="0" width="250" height="250" xlink:href="#left-eye-brow" transform="matrix(-1,-0,-0,1,256.94,0.65)"></use>
</svg>  
  
