<svg version="1.1" id="emoticon-front-view" viewBox="0.0 0.0 250.0 250.0" xmlns:xlink="http://www.w3.org/1999/xlink" xmlns="http://www.w3.org/2000/svg" xmlns:svg="http://www.w3.org/2000/svg">
  <defs id="defs4">
    <linearGradient id="linearGradient5745">
      <stop id="stop5747" offset="0" style="stop-color:#f4e015;stop-opacity:1"></stop>
      <stop id="stop5749" offset="1" style="stop-color:#e5510c;stop-opacity:1"></stop>
    </linearGradient>
    <linearGradient id="linearGradient2823">
      <stop id="stop2825" offset="0" style="stop-color:#000000;stop-opacity:1"></stop>
      <stop id="stop2827" offset="1" style="stop-color:#662e91;stop-opacity:1"></stop>
    </linearGradient>
    <clipPath id="clipPath2967">
      <use id="use2969" x="0" y="0" width="1" height="1" xlink:href="#path3622" transform="translate(-57.14,-22.86)"></use>
    </clipPath>
    <clipPath id="clipPath4022">
    <use id="use5959" x="0" y="0" width="250" height="250" xlink:href="#path3622" transform="matrix(-1,0,0,1,915.87,-3.77)"></use>
    </clipPath>
    <radialGradient spreadMethod="pad" gradientTransform="matrix(98.09029,121.52782,-104.45905,83.940949,1881.611,1722.6769)" gradientUnits="userSpaceOnUse" xlink:href="#linearGradient5745" id="radialGradient5694" fy="2.7052789" fx="-15.37231" r="1" cy="2.7052789" cx="-15.37231"></radialGradient>
    <linearGradient gradientTransform="translate(37.463072,-25.351165)" gradientUnits="userSpaceOnUse" xlink:href="#linearGradient2823" id="irisGradient" y2="606.46576" x2="138.57143" y1="488.07648" x1="107.14286"></linearGradient>
  </defs>
  <g id="head">
    <path style="fill:url(#radialGradient5694);fill-opacity:1;stroke:#000000;stroke-width:1;stroke-opacity:1" id="path164" d="M 37.09,139.48 C 36.86,191.41 78.01,227.96 128.48,227.96 L 128.48,227.96 C 178.93,227.96 221.33,185.84 219.84,133.93 L 219.84,133.93 C 217.93,66.69 154.28,28.46 127.68,22.78 L 127.68,22.78 C 99.08,30.59 37.44,65.52 37.09,139.48"></path>
    <g id="head-glare">
      <path style="fill:#f9d037;fill-opacity:1;stroke:none" id="path184" d="M 65.39,67.61 C 40.82,98 40.57,141.97 40.57,150.07 L 40.57,150.07 C 40.57,157.77 50.53,178.05 48.82,170.56 L 48.82,170.56 C 44.62,152.13 45.72,141.3 45.72,135.32 L 45.72,135.32 C 45.72,131.23 46.35,127.06 49.05,110.76 L 49.05,110.76 C 51.75,94.46 58.85,84.99 72.84,65.76 L 72.84,65.76 C 86.83,46.52 117.39,29.49 126.27,28.73 L 126.27,28.73 C 135.14,28 157.33,40.7 157.33,40.7 L 157.33,40.7 C 157.33,40.7 169.76,45.83 154.01,36.86 L 154.01,36.86 C 138.28,27.9 126.04,24.59 126.04,24.59 L 126.04,24.59 C 126.04,24.59 93.8,32.47 65.39,67.61"></path>
      <path style="fill:#fff5d2;fill-opacity:1;fill-rule:nonzero;stroke:none" id="path196" d="M 126.5,24.82 C 126.5,24.82 137.37,25.91 152.76,35.49 168,44.97 157.71,38.62 157.71,38.62 157.71,38.62 135.62,25.91 126.73,26.35 111.88,27.08 78,52.43 66.41,67.91 52.11,87.03 46.1,106.15 43.4,122.45 40.7,138.76 40.57,155.69 40.57,147.98 40.57,139.88 41.5,95.35 66.72,65.53 93.44,33.93 126.5,24.82 126.5,24.82"></path>
    </g>
  </g>
  <g style="stroke-width:4.36;stroke-miterlimit:4;stroke-dasharray:none" id="left-eye" transform="matrix(0.16,0,0,0.16,61.42,19.46)">
    <path style="fill:#ffffff;stroke:#000000;stroke-width:6.14;stroke-miterlimit:4;stroke-opacity:1;stroke-dasharray:none" id="path3622" d="M 272.03,503.84 C 303.42,534.42 302.1,581.18 285.23,596.79 228.53,590.31 157.83,595.21 113.1,590.32 72.81,567.87 69.75,515.65 112.83,481.16 164.47,455.61 235.33,473.06 272.03,503.84 Z"></path>
    <g style="stroke-width:4.36;stroke-miterlimit:4;stroke-dasharray:none" id="lens" clip-path="url(#clipPath2967)" transform="translate(57.14,22.86)">
      <g id="g4403">
        <path style="fill:url(#irisGradient);fill-opacity:1;stroke:#000000;stroke-width:6.14;stroke-miterlimit:4;stroke-opacity:1;stroke-dasharray:none" id="iris" d="M 206.21,518.16 C 206.21,533.12 200.35,547.98 190.31,558.56 180.26,569.14 166.13,575.3 151.92,575.3 137.71,575.3 123.58,569.14 113.53,558.56 103.48,547.98 97.63,533.12 97.63,518.16 97.63,503.2 103.48,488.33 113.53,477.75 123.58,467.17 137.71,461.01 151.92,461.01 166.13,461.01 180.26,467.17 190.31,477.75 200.35,488.33 206.21,503.2 206.21,518.16 Z"></path>
        <path style="fill:#000000;fill-opacity:1;stroke:#000000;stroke-width:6.14;stroke-miterlimit:4;stroke-opacity:1;stroke-dasharray:none" id="pupil" d="M 169.63,521.25 C 169.63,525.93 167.71,530.58 164.41,533.89 161.1,537.19 156.45,539.12 151.78,539.12 147.1,539.12 142.45,537.19 139.15,533.89 135.84,530.58 133.92,525.93 133.92,521.25 133.92,516.57 135.84,511.93 139.15,508.62 142.45,505.31 147.1,503.38 151.78,503.38 156.45,503.38 161.1,505.31 164.41,508.62 167.71,511.93 169.63,516.57 169.63,521.25 Z"></path>
        <path style="fill:#ffffff;fill-opacity:1;stroke:none" id="glare" d="M 144.99,507.74 C 144.99,512.45 141.12,516.27 136.35,516.27 131.58,516.27 127.72,512.45 127.72,507.74 127.72,503.03 131.58,499.21 136.35,499.21 141.12,499.21 144.99,503.03 144.99,507.74 Z"></path>
      </g>
    </g>
  </g>
  <g style="stroke-width:4.36;stroke-miterlimit:4;stroke-dasharray:none" id="right-eye" transform="matrix(0.16,0,0,0.16,44.85,20.07)">
    <use id="use3959" x="0" y="0" width="250" height="250" xlink:href="#path3622" transform="matrix(-1,0,0,1,915.87,-3.77)"></use>
    <g id="g4015" clip-path="url(#clipPath4022)">
      <use style="stroke-width:4.36;stroke-miterlimit:4;stroke-dasharray:none" xlink:href="#g4403" height="1" width="1" y="0" x="0" id="right-lens" transform="translate(554.13,19.33)"></use>
    </g>
  </g>
  <path style="fill:#292929;fill-opacity:1;fill-rule:nonzero;stroke:#000000;stroke-width:1;stroke-miterlimit:4;stroke-opacity:1;stroke-dasharray:none" id="left-eye-brow" d="M 115.44,87.76 113.91,89.49 C 103.01,81.72 97.7,78.84 88.7,78.35 79.69,77.86 71.69,81.64 66.44,89.59 L 64.71,89.21 C 70.33,84.49 75.14,78.31 88.74,76.9 99.28,77.46 105.57,81.62 115.44,87.76 Z"></path>
  <g style="fill:#000000;fill-opacity:1;stroke:#000000;stroke-width:0.22;stroke-opacity:1" id="nose" transform="matrix(5.34,0,0,-6.08,110.28,132.57)">
    <path style="fill:#000000;fill-opacity:1;stroke:#000000;stroke-width:0.04;stroke-linecap:butt;stroke-linejoin:miter;stroke-miterlimit:4;stroke-opacity:1;stroke-dasharray:none" id="nose-path" d="M 0.31,0.05 0.74,-0.2 C 0.83,-2.34 2.21,-3.43 3.56,-3.43 4.92,-3.43 6.3,-2.33 6.37,-0.15 L 6.74,0.08 C 6.71,-2.41 5.05,-3.54 3.56,-3.54 2.08,-3.54 0.45,-2.45 0.31,0.05 Z"></path>
  </g>
  <path style="fill:#000000;fill-opacity:1;stroke:#000000;stroke-width:0.62;stroke-linecap:butt;stroke-linejoin:miter;stroke-miterlimit:4;stroke-opacity:1;stroke-dasharray:none" id="mouth-path" d="M 83.28,172.77 C 83.28,172.77 95.83,175.49 129.34,175.23 163.94,175 176.07,171.34 176.07,171.34 L 177.03,172.57 C 177.03,172.57 164.34,192.06 129.75,192.19 94.63,192.11 82.34,173.77 82.34,173.77 L 83.28,172.77 Z"></path>
  <use id="right-eye-brow" x="0" y="0" width="250" height="250" xlink:href="#left-eye-brow" transform="matrix(-1,-0.01,-0.01,1,256.48,0.76)"></use>
</svg>  
  
