<svg version="1.1" id="emoticon-front-view" viewBox="0.0 0.0 250.0 250.0" xmlns:xlink="http://www.w3.org/1999/xlink" xmlns="http://www.w3.org/2000/svg" xmlns:svg="http://www.w3.org/2000/svg">
  <defs id="defs4">
    <linearGradient id="linearGradient5745">
      <stop id="stop5747" offset="0" style="stop-color:#f4e815;stop-opacity:1"></stop>
      <stop id="stop5749" offset="1" style="stop-color:#ed6c10;stop-opacity:1"></stop>
    </linearGradient>
    <linearGradient id="linearGradient2823">
      <stop id="stop2825" offset="0" style="stop-color:#000000;stop-opacity:1"></stop>
      <stop id="stop2827" offset="1" style="stop-color:#662e91;stop-opacity:1"></stop>
    </linearGradient>
    <clipPath id="clipPath2967">
      <use id="use2969" x="0" y="0" width="1" height="1" xlink:href="#path3622" transform="translate(-57.14,-22.86)"></use>
    </clipPath>
    <clipPath id="clipPath4022">
    <use id="use5959" x="0" y="0" width="250" height="250" xlink:href="#path3622" transform="matrix(-1,0,0,1,915.87,-3.77)"></use>
    </clipPath>
    <radialGradient spreadMethod="pad" gradientTransform="matrix(98.09029,121.52782,-104.45905,83.940949,1881.611,1722.6769)" gradientUnits="userSpaceOnUse" xlink:href="#linearGradient5745" id="radialGradient5694" fy="2.7052789" fx="-15.37231" r="1" cy="2.7052789" cx="-15.37231"></radialGradient>
    <linearGradient gradientTransform="translate(37.463072,-25.351165)" gradientUnits="userSpaceOnUse" xlink:href="#linearGradient2823" id="irisGradient" y2="606.46576" x2="138.57143" y1="488.07648" x1="107.14286"></linearGradient>
  </defs>
  <g id="head">
    <path style="fill:url(#radialGradient5694);fill-opacity:1;stroke:#000000;stroke-width:1;stroke-opacity:1" id="path164" d="M 37.09,139.48 C 36.86,191.41 78.01,227.96 128.48,227.96 L 128.48,227.96 C 178.93,227.96 221.33,185.84 219.84,133.93 L 219.84,133.93 C 217.93,66.69 154.28,28.46 127.68,22.78 L 127.68,22.78 C 99.08,30.59 37.44,65.52 37.09,139.48"></path>
    <g id="head-glare">
      <path style="fill:#f9df37;fill-opacity:1;stroke:none" id="path184" d="M 65.39,67.61 C 40.82,98 40.57,141.97 40.57,150.07 L 40.57,150.07 C 40.57,157.77 50.53,178.05 48.82,170.56 L 48.82,170.56 C 44.62,152.13 45.72,141.3 45.72,135.32 L 45.72,135.32 C 45.72,131.23 46.35,127.06 49.05,110.76 L 49.05,110.76 C 51.75,94.46 58.85,84.99 72.84,65.76 L 72.84,65.76 C 86.83,46.52 117.39,29.49 126.27,28.73 L 126.27,28.73 C 135.14,28 157.33,40.7 157.33,40.7 L 157.33,40.7 C 157.33,40.7 169.76,45.83 154.01,36.86 L 154.01,36.86 C 138.28,27.9 126.04,24.59 126.04,24.59 L 126.04,24.59 C 126.04,24.59 93.8,32.47 65.39,67.61"></path>
      <path style="fill:#fffae8;fill-opacity:1;fill-rule:nonzero;stroke:none" id="path196" d="M 126.5,24.82 C 126.5,24.82 137.37,25.91 152.76,35.49 168,44.97 157.71,38.62 157.71,38.62 157.71,38.62 135.62,25.91 126.73,26.35 111.88,27.08 78,52.43 66.41,67.91 52.11,87.03 46.1,106.15 43.4,122.45 40.7,138.76 40.57,155.69 40.57,147.98 40.57,139.88 41.5,95.35 66.72,65.53 93.44,33.93 126.5,24.82 126.5,24.82"></path>
    </g>
  </g>
  <g style="stroke-width:4.36;stroke-miterlimit:4;stroke-dasharray:none" id="left-eye" transform="matrix(0.16,0,0,0.16,61.42,19.46)">
    <path style="fill:#ffffff;stroke:#000000;stroke-width:6.14;stroke-miterlimit:4;stroke-opacity:1;stroke-dasharray:none" id="path3622" d="M 280.89,478.7 C 315.03,513.41 308.52,569.39 288.32,589.37 232.81,580.2 163.91,589.39 118.42,594.01 76.98,562.36 77.52,500.34 121.67,462.88 171.52,431.39 243.02,443.46 280.89,478.7 Z"></path>
    <g style="stroke-width:4.36;stroke-miterlimit:4;stroke-dasharray:none" id="lens" clip-path="url(#clipPath2967)" transform="translate(57.14,22.86)">
      <g id="g4403">
        <path style="fill:url(#irisGradient);fill-opacity:1;stroke:#000000;stroke-width:6.14;stroke-miterlimit:4;stroke-opacity:1;stroke-dasharray:none" id="iris" d="M 206.29,515.09 C 206.29,530.05 200.44,544.91 190.39,555.49 180.34,566.07 166.21,572.23 152,572.23 137.79,572.23 123.66,566.07 113.61,555.49 103.56,544.91 97.71,530.05 97.71,515.09 97.71,500.13 103.56,485.26 113.61,474.68 123.66,464.1 137.79,457.94 152,457.94 166.21,457.94 180.34,464.1 190.39,474.68 200.44,485.26 206.29,500.13 206.29,515.09 Z"></path>
        <path style="fill:#000000;fill-opacity:1;stroke:#000000;stroke-width:6.14;stroke-miterlimit:4;stroke-opacity:1;stroke-dasharray:none" id="pupil" d="M 169.71,518.15 C 169.71,522.83 167.79,527.48 164.49,530.79 161.18,534.09 156.53,536.02 151.86,536.02 147.18,536.02 142.53,534.09 139.23,530.79 135.92,527.48 134,522.83 134,518.15 134,513.47 135.92,508.83 139.23,505.52 142.53,502.21 147.18,500.28 151.86,500.28 156.53,500.28 161.18,502.21 164.49,505.52 167.79,508.83 169.71,513.47 169.71,518.15 Z"></path>
        <path style="fill:#ffffff;fill-opacity:1;stroke:none" id="glare" d="M 148.13,503.56 C 148.13,508.91 143.73,513.25 138.31,513.25 132.89,513.25 128.5,508.91 128.5,503.56 128.5,498.2 132.89,493.86 138.31,493.86 143.73,493.86 148.13,498.2 148.13,503.56 Z"></path>
      </g>
    </g>
  </g>
  <g style="stroke-width:4.36;stroke-miterlimit:4;stroke-dasharray:none" id="right-eye" transform="matrix(0.16,0,0,0.16,44.85,20.07)">
    <use id="use3959" x="0" y="0" width="250" height="250" xlink:href="#path3622" transform="matrix(-1,0,0,1,915.87,-3.77)"></use>
    <g id="g4015" clip-path="url(#clipPath4022)">
      <use style="stroke-width:4.36;stroke-miterlimit:4;stroke-dasharray:none" xlink:href="#g4403" height="1" width="1" y="0" x="0" id="right-lens" transform="translate(553.08,19.67)"></use>
    </g>
  </g>
  <path style="fill:#292929;fill-opacity:1;fill-rule:nonzero;stroke:#000000;stroke-width:1;stroke-miterlimit:4;stroke-opacity:1;stroke-dasharray:none" id="left-eye-brow" d="M 114.45,80.22 112.4,81.53 C 102.31,74.43 94.46,72.99 85.61,74.78 76.75,76.57 68.63,82.67 65.7,91.91 L 63.89,91.76 C 66.95,89.28 68.84,78.84 85.22,73.27 96.09,71.19 104.43,74.24 114.45,80.22 Z"></path>
  <g style="fill:#000000;fill-opacity:1;stroke:#000000;stroke-width:0.22;stroke-opacity:1" id="nose" transform="matrix(5.34,0,0,-6.08,110.6,133.54)">
    <path style="fill:#000000;fill-opacity:1;stroke:#000000;stroke-width:0.04;stroke-linecap:butt;stroke-linejoin:miter;stroke-miterlimit:4;stroke-opacity:1;stroke-dasharray:none" id="nose-path" d="M 0.11,0.05 0.55,-0.19 C 0.92,-2.35 2.21,-3.43 3.56,-3.43 4.92,-3.43 6.2,-2.33 6.57,-0.15 L 6.95,0.07 C 6.57,-2.38 5.05,-3.54 3.56,-3.54 2.08,-3.54 0.55,-2.42 0.11,0.05 Z"></path>
  </g>
  <path style="fill:#000000;fill-opacity:1;stroke:#000000;stroke-width:0.62;stroke-linecap:butt;stroke-linejoin:miter;stroke-miterlimit:4;stroke-opacity:1;stroke-dasharray:none" id="mouth-path" d="M 84.07,167.49 C 84.07,167.49 97.52,176.95 130.04,176.58 163.22,176.2 175.96,166.64 175.96,166.64 L 178,166.06 C 178,166.06 167.22,198.82 130.7,198.99 93.67,199.03 82.31,166.84 82.31,166.84 L 84.07,167.49 Z"></path>
  <use id="right-eye-brow" x="0" y="0" width="250" height="250" xlink:href="#left-eye-brow" transform="matrix(-1,-0,-0,1,257.46,0.49)"></use>
</svg>  
  
