<svg version="1.1" id="emoticon-front-view" viewBox="0.0 0.0 250.0 250.0" xmlns:xlink="http://www.w3.org/1999/xlink" xmlns="http://www.w3.org/2000/svg" xmlns:svg="http://www.w3.org/2000/svg">
  <defs id="defs4">
    <linearGradient id="linearGradient5745">
      <stop id="stop5747" offset="0" style="stop-color:#f4cc15;stop-opacity:1"></stop>
      <stop id="stop5749" offset="1" style="stop-color:#d00d02;stop-opacity:1"></stop>
    </linearGradient>
    <linearGradient id="linearGradient2823">
      <stop id="stop2825" offset="0" style="stop-color:#000000;stop-opacity:1"></stop>
      <stop id="stop2827" offset="1" style="stop-color:#662e91;stop-opacity:1"></stop>
    </linearGradient>
    <clipPath id="clipPath2967">
      <use id="use2969" x="0" y="0" width="1" height="1" xlink:href="#path3622" transform="translate(-57.14,-22.86)"></use>
    </clipPath>
    <clipPath id="clipPath4022">
    <use id="use5959" x="0" y="0" width="250" height="250" xlink:href="#path3622" transform="matrix(-1,0,0,1,915.87,-3.77)"></use>
    </clipPath>
    <radialGradient spreadMethod="pad" gradientTransform="matrix(98.09029,121.52782,-104.45905,83.940949,1881.611,1722.6769)" gradientUnits="userSpaceOnUse" xlink:href="#linearGradient5745" id="radialGradient5694" fy="2.7052789" fx="-15.37231" r="1" cy="2.7052789" cx="-15.37231"></radialGradient>
    <linearGradient gradientTransform="translate(37.463072,-25.351165)" gradientUnits="userSpaceOnUse" xlink:href="#linearGradient2823" id="irisGradient" y2="606.46576" x2="138.57143" y1="488.07648" x1="107.14286"></linearGradient>
  </defs>
  <g id="head">
    <path style="fill:url(#radialGradient5694);fill-opacity:1;stroke:#000000;stroke-width:1;stroke-opacity:1" id="path164" d="M 37.09,139.48 C 36.86,191.41 78.01,227.96 128.48,227.96 L 128.48,227.96 C 178.93,227.96 221.33,185.84 219.84,133.93 L 219.84,133.93 C 217.93,66.69 154.28,28.46 127.68,22.78 L 127.68,22.78 C 99.08,30.59 37.44,65.52 37.09,139.48"></path>
    <g id="head-glare">
      <path style="fill:#f9ab37;fill-opacity:1;stroke:none" id="path184" d="M 65.39,67.61 C 40.82,98 40.57,141.97 40.57,150.07 L 40.57,150.07 C 40.57,157.77 50.53,178.05 48.82,170.56 L 48.82,170.56 C 44.62,152.13 45.72,141.3 45.72,135.32 L 45.72,135.32 C 45.72,131.23 46.35,127.06 49.05,110.76 L 49.05,110.76 C 51.75,94.46 58.85,84.99 72.84,65.76 L 72.84,65.76 C 86.83,46.52 117.39,29.49 126.27,28.73 L 126.27,28.73 C 135.14,28 157.33,40.7 157.33,40.7 L 157.33,40.7 C 157.33,40.7 169.76,45.83 154.01,36.86 L 154.01,36.86 C 138.28,27.9 126.04,24.59 126.04,24.59 L 126.04,24.59 C 126.04,24.59 93.8,32.47 65.39,67.61"></path>
      <path style="fill:#ffe89b;fill-opacity:1;fill-rule:nonzero;stroke:none" id="path196" d="M 126.5,24.82 C 126.5,24.82 137.37,25.91 152.76,35.49 168,44.97 157.71,38.62 157.71,38.62 157.71,38.62 135.62,25.91 126.73,26.35 111.88,27.08 78,52.43 66.41,67.91 52.11,87.03 46.1,106.15 43.4,122.45 40.7,138.76 40.57,155.69 40.57,147.98 40.57,139.88 41.5,95.35 66.72,65.53 93.44,33.93 126.5,24.82 126.5,24.82"></path>
    </g>
  </g>
  <g style="stroke-width:4.36;stroke-miterlimit:4;stroke-dasharray:none" id="left-eye" transform="matrix(0.16,0,0,0.16,61.42,19.46)">
    <path style="fill:#ffffff;stroke:#000000;stroke-width:6.14;stroke-miterlimit:4;stroke-opacity:1;stroke-dasharray:none" id="path3622" d="M 224.32,520.3 C 272.96,556.1 300.28,595.37 280.34,600.68 226.82,593.39 164.03,581.98 128.78,575.87 92.19,569.58 61.99,555.32 90.1,519.58 121.42,487.2 175.9,488.88 224.32,520.3 Z"></path>
    <g style="stroke-width:4.36;stroke-miterlimit:4;stroke-dasharray:none" id="lens" clip-path="url(#clipPath2967)" transform="translate(57.14,22.86)">
      <g id="g4403">
        <path style="fill:url(#irisGradient);fill-opacity:1;stroke:#000000;stroke-width:6.14;stroke-miterlimit:4;stroke-opacity:1;stroke-dasharray:none" id="iris" d="M 196.89,522.3 C 196.89,537.26 191.03,552.12 180.99,562.7 170.94,573.28 156.81,579.44 142.6,579.44 128.39,579.44 114.26,573.28 104.21,562.7 94.16,552.12 88.31,537.26 88.31,522.3 88.31,507.34 94.16,492.47 104.21,481.89 114.26,471.31 128.39,465.15 142.6,465.15 156.81,465.15 170.94,471.31 180.99,481.89 191.03,492.47 196.89,507.34 196.89,522.3 Z"></path>
        <path style="fill:#000000;fill-opacity:1;stroke:#000000;stroke-width:6.14;stroke-miterlimit:4;stroke-opacity:1;stroke-dasharray:none" id="pupil" d="M 160.31,525.33 C 160.31,530 158.39,534.65 155.09,537.96 151.78,541.27 147.13,543.19 142.46,543.19 137.78,543.19 133.13,541.27 129.83,537.96 126.52,534.65 124.6,530 124.6,525.33 124.6,520.65 126.52,516 129.83,512.69 133.13,509.39 137.78,507.46 142.46,507.46 147.13,507.46 151.78,509.39 155.09,512.69 158.39,516 160.31,520.65 160.31,525.33 Z"></path>
        <path style="fill:#ffffff;fill-opacity:1;stroke:none" id="glare" d="M 130.53,514.2 C 130.53,516.59 128.56,518.53 126.14,518.53 123.73,518.53 121.76,516.59 121.76,514.2 121.76,511.81 123.73,509.87 126.14,509.87 128.56,509.87 130.53,511.81 130.53,514.2 Z"></path>
      </g>
    </g>
  </g>
  <g style="stroke-width:4.36;stroke-miterlimit:4;stroke-dasharray:none" id="right-eye" transform="matrix(0.16,0,0,0.16,44.85,20.07)">
    <use id="use3959" x="0" y="0" width="250" height="250" xlink:href="#path3622" transform="matrix(-1,0,0,1,915.87,-3.77)"></use>
    <g id="g4015" clip-path="url(#clipPath4022)">
      <use style="stroke-width:4.36;stroke-miterlimit:4;stroke-dasharray:none" xlink:href="#g4403" height="1" width="1" y="0" x="0" id="right-lens" transform="translate(568.68,19.13)"></use>
    </g>
  </g>
  <path style="fill:#292929;fill-opacity:1;fill-rule:nonzero;stroke:#000000;stroke-width:1;stroke-miterlimit:4;stroke-opacity:1;stroke-dasharray:none" id="left-eye-brow" d="M 118.18,106.27 117.16,108.45 C 107.57,102.12 103.93,94.4 95.43,89.11 86.94,83.82 77.38,81.78 69.13,89.08 L 67.26,88.34 C 77.11,79.07 87.58,81.92 96.39,87.71 105.14,93.55 108.66,100.25 118.18,106.27 Z"></path>
  <g style="fill:#000000;fill-opacity:1;stroke:#000000;stroke-width:0.22;stroke-opacity:1" id="nose" transform="matrix(5.34,0,0,-6.08,109.89,125.86)">
    <path style="fill:#000000;fill-opacity:1;stroke:#000000;stroke-width:0.04;stroke-linecap:butt;stroke-linejoin:miter;stroke-miterlimit:4;stroke-opacity:1;stroke-dasharray:none" id="nose-path" d="M 1.01,-0.02 1.47,-0.25 C 0.79,-2.01 2.21,-3.43 3.56,-3.43 4.92,-3.43 6.35,-2.09 5.66,-0.21 L 6.05,0 C 6.87,-2.26 5.05,-3.54 3.56,-3.54 2.08,-3.54 0.37,-2.26 1.01,-0.02 Z"></path>
  </g>
  <path style="fill:#000000;fill-opacity:1;stroke:#000000;stroke-width:0.62;stroke-linecap:butt;stroke-linejoin:miter;stroke-miterlimit:4;stroke-opacity:1;stroke-dasharray:none" id="mouth-path" d="M 78.74,180.62 C 78.74,180.62 91.56,162.79 127.62,162.71 164.77,162.84 178.12,180.17 178.12,180.17 L 177.65,182.52 C 177.65,182.52 163.39,167.17 127.75,167.21 90.43,167.17 78.61,183.51 78.61,183.51 L 78.74,180.62 Z"></path>
  <use id="right-eye-brow" x="0" y="0" width="250" height="250" xlink:href="#left-eye-brow" transform="matrix(-1,-0,-0,1,255.14,0.48)"></use>
</svg>  
  
